<svg viewBox="0 0 51 51" xmlns="http://www.w3.org/2000/svg" xmlns:xlink="http://www.w3.org/1999/xlink" width="51.000000" height="51.000000" fill="none" customFrame="#000000">
	<path id="“" d="M15.2775 0C5.61674 0 0 4.94273 0 14.8282L0 51L19.7709 51L19.7709 19.9956L11.0088 19.9956L11.0088 14.6035C11.0088 10.5595 12.5815 9.88547 15.5022 9.88547L19.9956 9.88547L19.9956 0L15.2775 0ZM46.2819 0C36.6211 0 31.0044 4.94273 31.0044 14.8282L31.0044 51L50.7753 51L50.7753 19.9956L42.0132 19.9956L42.0132 14.6035C42.0132 10.5595 43.3612 9.88547 46.5066 9.88547L51 9.88547L51 0L46.2819 0Z" fill="rgb(219,87,77)" fill-rule="nonzero" />
</svg>
